<svg width="340" height="48" viewBox="0 0 340 48" fill="none" xmlns="http://www.w3.org/2000/svg">
<path d="M73.9318 19H70.4091C70.2008 17.9867 69.8362 17.0966 69.3153 16.3295C68.804 15.5625 68.179 14.9186 67.4403 14.3977C66.7112 13.8674 65.9015 13.4697 65.0114 13.2045C64.1212 12.9394 63.1932 12.8068 62.2273 12.8068C60.4659 12.8068 58.8703 13.2519 57.4403 14.142C56.0199 15.0322 54.8883 16.3438 54.0455 18.0767C53.2121 19.8097 52.7955 21.9356 52.7955 24.4545C52.7955 26.9735 53.2121 29.0994 54.0455 30.8324C54.8883 32.5653 56.0199 33.8769 57.4403 34.767C58.8703 35.6572 60.4659 36.1023 62.2273 36.1023C63.1932 36.1023 64.1212 35.9697 65.0114 35.7045C65.9015 35.4394 66.7112 35.0464 67.4403 34.5256C68.179 33.9953 68.804 33.3466 69.3153 32.5795C69.8362 31.803 70.2008 30.9129 70.4091 29.9091H73.9318C73.6667 31.3958 73.1837 32.7263 72.483 33.9006C71.7822 35.0748 70.911 36.0739 69.8693 36.8977C68.8277 37.7121 67.6581 38.3324 66.3608 38.7585C65.0729 39.1847 63.6951 39.3977 62.2273 39.3977C59.7462 39.3977 57.5398 38.7917 55.608 37.5795C53.6761 36.3674 52.1563 34.6439 51.0483 32.4091C49.9403 30.1742 49.3864 27.5227 49.3864 24.4545C49.3864 21.3864 49.9403 18.7348 51.0483 16.5C52.1563 14.2652 53.6761 12.5417 55.608 11.3295C57.5398 10.1174 59.7462 9.51136 62.2273 9.51136C63.6951 9.51136 65.0729 9.72443 66.3608 10.1506C67.6581 10.5767 68.8277 11.2017 69.8693 12.0256C70.911 12.84 71.7822 13.8343 72.483 15.0085C73.1837 16.1733 73.6667 17.5038 73.9318 19ZM95.5334 17.1818C95.3629 15.7424 94.6716 14.625 93.4595 13.8295C92.2474 13.0341 90.7607 12.6364 88.9993 12.6364C87.7114 12.6364 86.5845 12.8447 85.6186 13.2614C84.6622 13.678 83.9141 14.2509 83.3743 14.9801C82.844 15.7093 82.5788 16.5379 82.5788 17.4659C82.5788 18.2424 82.7635 18.91 83.1328 19.4688C83.5116 20.018 83.9946 20.4773 84.5817 20.8466C85.1688 21.2064 85.7843 21.5047 86.4283 21.7415C87.0722 21.9687 87.6641 22.1534 88.2038 22.2955L91.1584 23.0909C91.916 23.2898 92.7588 23.5644 93.6868 23.9148C94.6243 24.2652 95.5192 24.7434 96.3714 25.3494C97.2332 25.946 97.9434 26.7131 98.5021 27.6506C99.0608 28.5881 99.3402 29.7386 99.3402 31.1023C99.3402 32.6742 98.9283 34.0947 98.1044 35.3636C97.29 36.6326 96.0968 37.6411 94.5249 38.3892C92.9624 39.1373 91.0637 39.5114 88.8288 39.5114C86.7455 39.5114 84.9415 39.1752 83.4169 38.5028C81.9018 37.8305 80.7086 36.893 79.8374 35.6903C78.9756 34.4877 78.4879 33.0909 78.3743 31.5H82.0107C82.1054 32.5985 82.4747 33.5076 83.1186 34.2273C83.772 34.9375 84.5959 35.4678 85.5902 35.8182C86.594 36.1591 87.6735 36.3295 88.8288 36.3295C90.1735 36.3295 91.3809 36.1117 92.451 35.6761C93.5211 35.2311 94.3686 34.6155 94.9936 33.8295C95.6186 33.0341 95.9311 32.1061 95.9311 31.0455C95.9311 30.0795 95.6612 29.2936 95.1214 28.6875C94.5817 28.0814 93.8714 27.589 92.9908 27.2102C92.1101 26.8314 91.1584 26.5 90.1357 26.2159L86.5561 25.1932C84.2834 24.5398 82.4841 23.607 81.1584 22.3949C79.8326 21.1828 79.1697 19.5966 79.1697 17.6364C79.1697 16.0076 79.6101 14.5871 80.4908 13.375C81.3809 12.1534 82.5741 11.2064 84.0703 10.5341C85.576 9.85227 87.2569 9.51136 89.1129 9.51136C90.9879 9.51136 92.6546 9.84754 94.1129 10.5199C95.5713 11.1828 96.7266 12.0919 97.5788 13.2472C98.4406 14.4025 98.8951 15.714 98.9425 17.1818H95.5334ZM116.382 9.90909H120.587L130.473 34.0568H130.814L140.7 9.90909H144.905V39H141.609V16.8977H141.325L132.234 39H129.053L119.962 16.8977H119.678V39H116.382V9.90909ZM157.934 39.5114C156.551 39.5114 155.297 39.2509 154.17 38.7301C153.043 38.1998 152.148 37.4375 151.485 36.4432C150.822 35.4394 150.491 34.2273 150.491 32.8068C150.491 31.5568 150.737 30.5436 151.229 29.767C151.722 28.9811 152.38 28.3655 153.204 27.9205C154.028 27.4754 154.937 27.1439 155.931 26.9261C156.935 26.6989 157.943 26.5189 158.957 26.3864C160.282 26.2159 161.357 26.0881 162.181 26.0028C163.014 25.9081 163.621 25.7519 163.999 25.5341C164.388 25.3163 164.582 24.9375 164.582 24.3977V24.2841C164.582 22.8826 164.198 21.7936 163.431 21.017C162.674 20.2405 161.523 19.8523 159.979 19.8523C158.379 19.8523 157.124 20.2027 156.215 20.9034C155.306 21.6042 154.667 22.3523 154.298 23.1477L151.116 22.0114C151.684 20.6856 152.442 19.6534 153.388 18.9148C154.345 18.1667 155.387 17.6458 156.513 17.3523C157.65 17.0492 158.767 16.8977 159.866 16.8977C160.567 16.8977 161.371 16.983 162.281 17.1534C163.199 17.3144 164.085 17.6506 164.937 18.1619C165.799 18.6733 166.513 19.4451 167.082 20.4773C167.65 21.5095 167.934 22.892 167.934 24.625V39H164.582V36.0455H164.411C164.184 36.5189 163.805 37.0256 163.275 37.5653C162.745 38.1051 162.039 38.5644 161.158 38.9432C160.278 39.322 159.203 39.5114 157.934 39.5114ZM158.445 36.5C159.771 36.5 160.888 36.2396 161.798 35.7188C162.716 35.1979 163.407 34.5256 163.871 33.7017C164.345 32.8778 164.582 32.0114 164.582 31.1023V28.0341C164.44 28.2045 164.127 28.3608 163.644 28.5028C163.171 28.6354 162.621 28.7538 161.996 28.858C161.381 28.9527 160.78 29.0379 160.192 29.1136C159.615 29.1799 159.146 29.2367 158.786 29.2841C157.915 29.3977 157.101 29.5824 156.343 29.8381C155.595 30.0843 154.989 30.4583 154.525 30.9602C154.07 31.4527 153.843 32.125 153.843 32.9773C153.843 34.142 154.274 35.0227 155.136 35.6193C156.007 36.2064 157.11 36.5 158.445 36.5ZM174.053 39V17.1818H177.291V20.4773H177.518C177.916 19.3977 178.636 18.5218 179.678 17.8494C180.719 17.1771 181.893 16.8409 183.2 16.8409C183.446 16.8409 183.754 16.8456 184.124 16.8551C184.493 16.8646 184.772 16.8788 184.962 16.8977V20.3068C184.848 20.2784 184.588 20.2358 184.18 20.179C183.783 20.1127 183.361 20.0795 182.916 20.0795C181.856 20.0795 180.909 20.3021 180.075 20.7472C179.251 21.1828 178.598 21.7888 178.115 22.5653C177.642 23.3324 177.405 24.2083 177.405 25.1932V39H174.053ZM192.06 31.0455L192.004 26.8977H192.685L202.231 17.1818H206.379L196.208 27.4659H195.924L192.06 31.0455ZM188.935 39V9.90909H192.288V39H188.935ZM202.799 39L194.276 28.2045L196.663 25.875L207.06 39H202.799ZM218.942 39.4545C216.84 39.4545 215.027 38.9905 213.502 38.0625C211.987 37.125 210.817 35.8182 209.994 34.142C209.179 32.4564 208.772 30.4962 208.772 28.2614C208.772 26.0265 209.179 24.0568 209.994 22.3523C210.817 20.6383 211.963 19.303 213.431 18.3466C214.908 17.3807 216.632 16.8977 218.602 16.8977C219.738 16.8977 220.86 17.0871 221.968 17.4659C223.076 17.8447 224.085 18.4602 224.994 19.3125C225.903 20.1553 226.627 21.2727 227.167 22.6648C227.707 24.0568 227.977 25.7708 227.977 27.8068V29.2273H211.158V26.3295H224.567C224.567 25.0985 224.321 24 223.829 23.0341C223.346 22.0682 222.655 21.3059 221.755 20.7472C220.865 20.1884 219.814 19.9091 218.602 19.9091C217.266 19.9091 216.111 20.2405 215.136 20.9034C214.17 21.5568 213.426 22.4091 212.906 23.4602C212.385 24.5114 212.124 25.6383 212.124 26.8409V28.7727C212.124 30.4205 212.408 31.8172 212.977 32.9631C213.554 34.0994 214.354 34.9659 215.377 35.5625C216.4 36.1496 217.588 36.4432 218.942 36.4432C219.823 36.4432 220.619 36.3201 221.329 36.0739C222.049 35.8182 222.669 35.4394 223.19 34.9375C223.71 34.4261 224.113 33.7917 224.397 33.0341L227.636 33.9432C227.295 35.0417 226.722 36.0076 225.917 36.8409C225.112 37.6648 224.118 38.3087 222.934 38.7727C221.75 39.2273 220.42 39.4545 218.942 39.4545ZM242.565 17.1818V20.0227H231.258V17.1818H242.565ZM234.553 11.9545H237.906V32.75C237.906 33.697 238.043 34.4072 238.317 34.8807C238.602 35.3447 238.961 35.6572 239.397 35.8182C239.842 35.9697 240.311 36.0455 240.803 36.0455C241.173 36.0455 241.476 36.0265 241.712 35.9886C241.949 35.9413 242.138 35.9034 242.281 35.875L242.962 38.8864C242.735 38.9716 242.418 39.0568 242.011 39.142C241.603 39.2367 241.087 39.2841 240.462 39.2841C239.515 39.2841 238.587 39.0805 237.678 38.6733C236.779 38.2661 236.031 37.6458 235.434 36.8125C234.847 35.9792 234.553 34.928 234.553 33.6591V11.9545ZM259.312 39V9.90909H269.482C271.509 9.90909 273.18 10.2595 274.496 10.9602C275.813 11.6515 276.793 12.5843 277.437 13.7585C278.081 14.9233 278.403 16.2159 278.403 17.6364C278.403 18.8864 278.18 19.9186 277.735 20.733C277.299 21.5473 276.722 22.1913 276.002 22.6648C275.292 23.1383 274.52 23.4886 273.687 23.7159V24C274.577 24.0568 275.472 24.3693 276.371 24.9375C277.271 25.5057 278.024 26.3201 278.63 27.3807C279.236 28.4413 279.539 29.7386 279.539 31.2727C279.539 32.7311 279.208 34.0426 278.545 35.2074C277.882 36.3722 276.835 37.2955 275.406 37.9773C273.976 38.6591 272.115 39 269.823 39H259.312ZM262.835 35.875H269.823C272.124 35.875 273.758 35.4299 274.724 34.5398C275.699 33.6402 276.187 32.5511 276.187 31.2727C276.187 30.2879 275.936 29.3788 275.434 28.5455C274.932 27.7027 274.217 27.0303 273.289 26.5284C272.361 26.017 271.263 25.7614 269.994 25.7614H262.835V35.875ZM262.835 22.6932H269.369C270.429 22.6932 271.386 22.4848 272.238 22.0682C273.1 21.6515 273.781 21.0644 274.283 20.3068C274.795 19.5492 275.05 18.6591 275.05 17.6364C275.05 16.358 274.605 15.2737 273.715 14.3835C272.825 13.4839 271.414 13.0341 269.482 13.0341H262.835V22.6932ZM288.225 9.90909V39H284.873V9.90909H288.225ZM303.229 39.4545C301.259 39.4545 299.531 38.9858 298.044 38.0483C296.567 37.1108 295.411 35.7992 294.578 34.1136C293.754 32.428 293.342 30.4583 293.342 28.2045C293.342 25.9318 293.754 23.9479 294.578 22.2528C295.411 20.5578 296.567 19.2415 298.044 18.304C299.531 17.3665 301.259 16.8977 303.229 16.8977C305.198 16.8977 306.922 17.3665 308.399 18.304C309.886 19.2415 311.041 20.5578 311.865 22.2528C312.698 23.9479 313.115 25.9318 313.115 28.2045C313.115 30.4583 312.698 32.428 311.865 34.1136C311.041 35.7992 309.886 37.1108 308.399 38.0483C306.922 38.9858 305.198 39.4545 303.229 39.4545ZM303.229 36.4432C304.725 36.4432 305.956 36.0597 306.922 35.2926C307.888 34.5256 308.603 33.517 309.067 32.267C309.531 31.017 309.763 29.6629 309.763 28.2045C309.763 26.7462 309.531 25.3873 309.067 24.1278C308.603 22.8684 307.888 21.8504 306.922 21.0739C305.956 20.2973 304.725 19.9091 303.229 19.9091C301.732 19.9091 300.501 20.2973 299.536 21.0739C298.57 21.8504 297.855 22.8684 297.391 24.1278C296.927 25.3873 296.695 26.7462 296.695 28.2045C296.695 29.6629 296.927 31.017 297.391 32.267C297.855 33.517 298.57 34.5256 299.536 35.2926C300.501 36.0597 301.732 36.4432 303.229 36.4432ZM327.039 47.6364C325.42 47.6364 324.028 47.428 322.863 47.0114C321.698 46.6042 320.728 46.0644 319.951 45.392C319.184 44.7292 318.573 44.0189 318.119 43.2614L320.789 41.3864C321.092 41.7841 321.476 42.2386 321.94 42.75C322.404 43.2708 323.038 43.7206 323.843 44.0994C324.657 44.4877 325.723 44.6818 327.039 44.6818C328.8 44.6818 330.254 44.2557 331.4 43.4034C332.546 42.5511 333.119 41.2159 333.119 39.3977V34.9659H332.835C332.588 35.3636 332.238 35.8561 331.783 36.4432C331.338 37.0208 330.694 37.5369 329.852 37.9915C329.018 38.4366 327.891 38.6591 326.471 38.6591C324.71 38.6591 323.128 38.2424 321.727 37.4091C320.335 36.5758 319.231 35.3636 318.417 33.7727C317.612 32.1818 317.21 30.25 317.21 27.9773C317.21 25.7424 317.603 23.7964 318.388 22.1392C319.174 20.4725 320.268 19.1847 321.67 18.2756C323.071 17.357 324.691 16.8977 326.528 16.8977C327.948 16.8977 329.075 17.1345 329.908 17.608C330.751 18.072 331.395 18.6023 331.84 19.1989C332.295 19.786 332.645 20.2689 332.891 20.6477H333.232V17.1818H336.471V39.625C336.471 41.5 336.045 43.0246 335.192 44.1989C334.35 45.3826 333.213 46.2491 331.783 46.7983C330.363 47.357 328.781 47.6364 327.039 47.6364ZM326.925 35.6477C328.27 35.6477 329.406 35.34 330.335 34.7244C331.263 34.1089 331.968 33.2235 332.451 32.0682C332.934 30.9129 333.175 29.5303 333.175 27.9205C333.175 26.3485 332.939 24.9612 332.465 23.7585C331.992 22.5559 331.291 21.6136 330.363 20.9318C329.435 20.25 328.289 19.9091 326.925 19.9091C325.505 19.9091 324.321 20.2689 323.374 20.9886C322.437 21.7083 321.731 22.6742 321.258 23.8864C320.794 25.0985 320.562 26.4432 320.562 27.9205C320.562 29.4356 320.799 30.7756 321.272 31.9403C321.755 33.0956 322.465 34.0047 323.403 34.6676C324.35 35.321 325.524 35.6477 326.925 35.6477Z" fill="white"/>
<path d="M35.15 4L20 17.125L15 12.75L0 26.0063L5 30.3813L15 21.5L20 25.875L40 8.375L35.15 4ZM0 34.625V39H40V34.625H0Z" fill="white"/>
</svg>
