<svg width="22" height="17" viewBox="0 0 22 17" fill="none" xmlns="http://www.w3.org/2000/svg">
<path d="M21.162 2.36225C20.3986 2.68242 19.589 2.89268 18.76 2.98609C19.6338 2.49066 20.2877 1.71093 20.6 0.792229C19.78 1.25489 18.881 1.57914 17.944 1.75453C17.3146 1.11607 16.4804 0.692645 15.571 0.550074C14.6616 0.407503 13.728 0.553777 12.9153 0.966157C12.1026 1.37854 11.4564 2.03392 11.0772 2.83041C10.6979 3.6269 10.6068 4.51988 10.818 5.37052C9.15515 5.2915 7.52838 4.88181 6.04333 4.16803C4.55829 3.45426 3.24818 2.45237 2.19805 1.2274C1.82634 1.8327 1.63101 2.5208 1.63205 3.22122C1.63205 4.59594 2.37005 5.81043 3.49205 6.5215C2.82806 6.50168 2.17868 6.33167 1.59805 6.02565V6.07495C1.59825 6.99051 1.93242 7.87784 2.5439 8.58648C3.15538 9.29512 4.00653 9.78146 4.95305 9.96304C4.33666 10.1214 3.69036 10.1447 3.06305 10.0313C3.32992 10.8194 3.85006 11.5086 4.55064 12.0025C5.25122 12.4963 6.09717 12.7701 6.97004 12.7855C6.10253 13.4314 5.10922 13.9089 4.04693 14.1907C2.98463 14.4725 1.87418 14.5529 0.779053 14.4276C2.69075 15.5932 4.91614 16.212 7.18904 16.21C14.882 16.21 19.089 10.1678 19.089 4.92777C19.089 4.75711 19.084 4.58456 19.076 4.4158C19.8949 3.8547 20.6016 3.15961 21.163 2.3632L21.162 2.36225Z" fill="#B5B5B5"/>
</svg>
